<svg width="959" height="956" viewBox="0 0 959 956" fill="none" xmlns="http://www.w3.org/2000/svg">
<path d="M959 358.617C959 292.425 905.173 238.767 838.774 238.767L599.726 238.767C533.585 238.767 479.968 185.317 479.968 119.383C479.968 53.4496 425.884 -2.33032e-05 359.742 -2.61944e-05C293.6 -2.90856e-05 239.516 53.4496 239.516 119.383C239.516 185.317 185.9 238.767 119.758 238.767C53.616 238.767 4.82416e-05 292.683 4.53595e-05 358.617C4.24775e-05 424.55 53.616 478.467 119.758 478.467C185.9 478.467 239.516 531.915 239.516 597.85L239.516 717.233C239.516 849.099 347.221 956 479.5 956C611.781 956 719.484 849.099 719.484 717.233L719.484 597.85C719.484 531.915 773.101 478.467 839.242 478.467C905.383 478.467 959 424.55 959 358.617Z" fill="#E3FCF7"/>
</svg>
