<svg width="1549" height="1929" viewBox="0 0 1549 1929" fill="none" xmlns="http://www.w3.org/2000/svg">
<path d="M1548.91 723.067L1548.91 1443.97C1548.91 1711.57 1311.27 1928.46 1018.07 1928.46C727.787 1928.46 492.711 1713.41 493.259 1448.64L493.807 1200.38C493.99 1068.92 377.367 962.31 233.506 962.31L224.366 962.31C80.506 962.31 -35.9348 855.869 -35.9348 724.736L-35.9348 720.064C-35.9348 588.597 -152.924 482.156 -296.967 482.49C-441.011 482.823 -558 376.382 -558 244.916L-558 238.409C-558 107.276 -441.559 1.00127 -297.882 0.834388L760.324 0.000312185C904.184 -0.166448 1020.81 106.275 1020.81 237.575L1020.81 247.918C1020.81 379.218 1137.43 485.493 1281.11 485.493L1288.79 485.493C1432.28 485.493 1548.91 591.767 1548.91 723.067Z" fill="#FBF3FF"/>
</svg>
